<mxfile host="app.diagrams.net" agent="Mozilla/5.0 (X11; Linux x86_64) AppleWebKit/537.36 (KHTML, like Gecko) Chrome/130.0.0.0 Safari/537.36" version="24.7.17">
  <diagram name="Page-1" id="gou_o3FNAQ_wvqfMeqYP">
    <mxGraphModel dx="1195" dy="612" grid="1" gridSize="10" guides="1" tooltips="1" connect="1" arrows="1" fold="1" page="1" pageScale="1" pageWidth="827" pageHeight="1169" math="0" shadow="0">
      <root>
        <mxCell id="0" />
        <mxCell id="1" parent="0" />
        <mxCell id="WehCppoM3GWXxg96iU8p-1" value="应用层" style="rounded=1;whiteSpace=wrap;html=1;hachureGap=4;fontFamily=Verdana;sketch=1;curveFitting=1;jiggle=2;verticalAlign=bottom;" vertex="1" parent="1">
          <mxGeometry x="160" y="260" width="170" height="280" as="geometry" />
        </mxCell>
        <mxCell id="WehCppoM3GWXxg96iU8p-2" value="表示层" style="rounded=1;whiteSpace=wrap;html=1;hachureGap=4;fontFamily=Verdana;sketch=1;curveFitting=1;jiggle=2;verticalAlign=bottom;" vertex="1" parent="1">
          <mxGeometry x="170" y="270" width="150" height="240" as="geometry" />
        </mxCell>
        <mxCell id="WehCppoM3GWXxg96iU8p-3" value="会话层" style="rounded=1;whiteSpace=wrap;html=1;hachureGap=4;fontFamily=Verdana;sketch=1;curveFitting=1;jiggle=2;verticalAlign=bottom;" vertex="1" parent="1">
          <mxGeometry x="180" y="280" width="130" height="200" as="geometry" />
        </mxCell>
        <mxCell id="WehCppoM3GWXxg96iU8p-4" value="传输层" style="rounded=1;whiteSpace=wrap;html=1;hachureGap=4;fontFamily=Verdana;sketch=1;curveFitting=1;jiggle=2;verticalAlign=bottom;" vertex="1" parent="1">
          <mxGeometry x="190" y="290" width="110" height="160" as="geometry" />
        </mxCell>
        <mxCell id="WehCppoM3GWXxg96iU8p-5" value="网络层" style="rounded=1;whiteSpace=wrap;html=1;hachureGap=4;fontFamily=Verdana;sketch=1;curveFitting=1;jiggle=2;verticalAlign=bottom;" vertex="1" parent="1">
          <mxGeometry x="200" y="300" width="90" height="120" as="geometry" />
        </mxCell>
        <mxCell id="WehCppoM3GWXxg96iU8p-6" value="数据链路层" style="rounded=1;whiteSpace=wrap;html=1;hachureGap=4;fontFamily=Verdana;sketch=1;curveFitting=1;jiggle=2;verticalAlign=bottom;" vertex="1" parent="1">
          <mxGeometry x="210" y="310" width="70" height="90" as="geometry" />
        </mxCell>
        <mxCell id="WehCppoM3GWXxg96iU8p-7" value="物理层" style="rounded=1;whiteSpace=wrap;html=1;hachureGap=4;fontFamily=Verdana;sketch=1;curveFitting=1;jiggle=2;verticalAlign=bottom;" vertex="1" parent="1">
          <mxGeometry x="220" y="320" width="50" height="60" as="geometry" />
        </mxCell>
      </root>
    </mxGraphModel>
  </diagram>
</mxfile>
